<?xml version="1.0" encoding="UTF-8" standalone="no"?>
<!-- Created with Inkscape (http://www.inkscape.org/) -->

<svg
   xmlns:dc="http://purl.org/dc/elements/1.1/"
   xmlns:cc="http://creativecommons.org/ns#"
   xmlns:rdf="http://www.w3.org/1999/02/22-rdf-syntax-ns#"
   xmlns:svg="http://www.w3.org/2000/svg"
   xmlns="http://www.w3.org/2000/svg"
   xmlns:xlink="http://www.w3.org/1999/xlink"
   xmlns:sodipodi="http://sodipodi.sourceforge.net/DTD/sodipodi-0.dtd"
   xmlns:inkscape="http://www.inkscape.org/namespaces/inkscape"
   width="1280"
   height="400"
   viewBox="0 0 1279.9999 400.00001"
   id="svg2"
   version="1.1"
   inkscape:version="0.91 r13725"
   sodipodi:docname="mgsx-banner.svg"
   inkscape:export-filename="/home/germain/git/mgsx-dev.github.io/_assets/mgsx-banner.png"
   inkscape:export-xdpi="90"
   inkscape:export-ydpi="90">
  <defs
     id="defs4">
    <linearGradient
       inkscape:collect="always"
       id="linearGradient4544">
      <stop
         style="stop-color:#7a7a7a;stop-opacity:1"
         offset="0"
         id="stop4546" />
      <stop
         style="stop-color:#3a3a3a;stop-opacity:1"
         offset="1"
         id="stop4548" />
    </linearGradient>
    <linearGradient
       inkscape:collect="always"
       xlink:href="#linearGradient4544"
       id="linearGradient4550"
       x1="181.65739"
       y1="170.86203"
       x2="182.09827"
       y2="155.82904"
       gradientUnits="userSpaceOnUse"
       spreadMethod="reflect" />
    <linearGradient
       inkscape:collect="always"
       xlink:href="#linearGradient4544"
       id="linearGradient4781"
       gradientUnits="userSpaceOnUse"
       spreadMethod="reflect"
       x1="181.65739"
       y1="170.86203"
       x2="182.09827"
       y2="155.82904" />
    <linearGradient
       inkscape:collect="always"
       xlink:href="#linearGradient4544"
       id="linearGradient4783"
       gradientUnits="userSpaceOnUse"
       spreadMethod="reflect"
       x1="181.65739"
       y1="170.86203"
       x2="182.09827"
       y2="155.82904" />
    <linearGradient
       inkscape:collect="always"
       xlink:href="#linearGradient4544"
       id="linearGradient4785"
       gradientUnits="userSpaceOnUse"
       spreadMethod="reflect"
       x1="181.65739"
       y1="170.86203"
       x2="182.09827"
       y2="155.82904" />
    <linearGradient
       inkscape:collect="always"
       xlink:href="#linearGradient4544"
       id="linearGradient4787"
       gradientUnits="userSpaceOnUse"
       spreadMethod="reflect"
       x1="181.65739"
       y1="170.86203"
       x2="182.09827"
       y2="155.82904" />
  </defs>
  <sodipodi:namedview
     id="base"
     pagecolor="#222222"
     bordercolor="#666666"
     borderopacity="1.0"
     inkscape:pageopacity="1"
     inkscape:pageshadow="2"
     inkscape:zoom="0.79824499"
     inkscape:cx="590.62744"
     inkscape:cy="162.49801"
     inkscape:document-units="px"
     inkscape:current-layer="layer1"
     showgrid="false"
     showguides="true"
     inkscape:guide-bbox="true"
     fit-margin-top="0"
     fit-margin-left="0"
     fit-margin-right="0"
     fit-margin-bottom="0"
     units="px"
     showborder="true"
     inkscape:showpageshadow="false"
     inkscape:window-width="1855"
     inkscape:window-height="1056"
     inkscape:window-x="65"
     inkscape:window-y="24"
     inkscape:window-maximized="1">
    <inkscape:grid
       type="xygrid"
       id="grid4151"
       originx="-106.40566"
       originy="-863.11774" />
    <sodipodi:guide
       position="33.594335,26.88229"
       orientation="1,0"
       id="guide4212" />
    <sodipodi:guide
       position="18.594336,26.88229"
       orientation="1,0"
       id="guide4214" />
    <sodipodi:guide
       position="3.5943367,6.8822897"
       orientation="1,0"
       id="guide4216" />
    <sodipodi:guide
       position="640.1543,260.57164"
       orientation="1,0"
       id="guide4789" />
    <sodipodi:guide
       position="720.33018,200.43972"
       orientation="0,1"
       id="guide4791" />
  </sodipodi:namedview>
  <metadata
     id="metadata7">
    <rdf:RDF>
      <cc:Work
         rdf:about="">
        <dc:format>image/svg+xml</dc:format>
        <dc:type
           rdf:resource="http://purl.org/dc/dcmitype/StillImage" />
        <dc:title></dc:title>
      </cc:Work>
    </rdf:RDF>
  </metadata>
  <g
     inkscape:label="Calque 1"
     inkscape:groupmode="layer"
     id="layer1"
     transform="translate(-106.40566,210.75551)">
    <path
       sodipodi:type="star"
       style="color:#000000;clip-rule:nonzero;display:inline;overflow:visible;visibility:visible;opacity:1;isolation:auto;mix-blend-mode:normal;color-interpolation:sRGB;color-interpolation-filters:linearRGB;solid-color:#000000;solid-opacity:1;fill:#989898;fill-opacity:1;fill-rule:nonzero;stroke:#484848;stroke-width:0.69999999;stroke-linecap:butt;stroke-linejoin:miter;stroke-miterlimit:4;stroke-dasharray:none;stroke-dashoffset:0;stroke-opacity:0.9812734;marker:none;color-rendering:auto;image-rendering:auto;shape-rendering:auto;text-rendering:auto;enable-background:accumulate"
       id="path4153"
       sodipodi:sides="6"
       sodipodi:cx="127.21457"
       sodipodi:cy="160.59055"
       sodipodi:r1="10"
       sodipodi:r2="8.6602535"
       sodipodi:arg1="1.5707963"
       sodipodi:arg2="2.0943951"
       inkscape:flatsided="true"
       inkscape:rounded="0"
       inkscape:randomized="0"
       d="m 127.21457,170.59055 -8.66025,-5 -1e-5,-10 8.66026,-5 8.66025,5 0,10 z"
       transform="matrix(3.2127054,1.9029241,-1.9029241,3.2127054,443.00013,-805.93167)" />
    <path
       sodipodi:type="star"
       style="color:#000000;clip-rule:nonzero;display:inline;overflow:visible;visibility:visible;opacity:1;isolation:auto;mix-blend-mode:normal;color-interpolation:sRGB;color-interpolation-filters:linearRGB;solid-color:#000000;solid-opacity:1;fill:#505050;fill-opacity:1;fill-rule:nonzero;stroke:#484848;stroke-width:0.69999999;stroke-linecap:butt;stroke-linejoin:miter;stroke-miterlimit:4;stroke-dasharray:none;stroke-dashoffset:0;stroke-opacity:0.9812734;marker:none;color-rendering:auto;image-rendering:auto;shape-rendering:auto;text-rendering:auto;enable-background:accumulate"
       id="path4153-2"
       sodipodi:sides="6"
       sodipodi:cx="136.76025"
       sodipodi:cy="177.06866"
       sodipodi:r1="10"
       sodipodi:r2="8.6602535"
       sodipodi:arg1="1.5707963"
       sodipodi:arg2="2.0943951"
       inkscape:flatsided="true"
       inkscape:rounded="0"
       inkscape:randomized="0"
       d="m 136.76025,187.06866 -8.66025,-5 0,-10 8.66025,-5 8.66026,5 0,10 z"
       transform="matrix(3.2127054,1.9029241,-1.9029241,3.2127054,443.00013,-805.93167)" />
    <path
       sodipodi:type="star"
       style="color:#000000;clip-rule:nonzero;display:inline;overflow:visible;visibility:visible;opacity:1;isolation:auto;mix-blend-mode:normal;color-interpolation:sRGB;color-interpolation-filters:linearRGB;solid-color:#000000;solid-opacity:1;fill:#262626;fill-opacity:1;fill-rule:nonzero;stroke:#484848;stroke-width:0.69999999;stroke-linecap:butt;stroke-linejoin:miter;stroke-miterlimit:4;stroke-dasharray:none;stroke-dashoffset:0;stroke-opacity:0.9812734;marker:none;color-rendering:auto;image-rendering:auto;shape-rendering:auto;text-rendering:auto;enable-background:accumulate"
       id="path4153-2-3"
       sodipodi:sides="6"
       sodipodi:cx="117.63048"
       sodipodi:cy="177.0687"
       sodipodi:r1="10"
       sodipodi:r2="8.6602535"
       sodipodi:arg1="1.5707963"
       sodipodi:arg2="2.0943951"
       inkscape:flatsided="true"
       inkscape:rounded="0"
       inkscape:randomized="0"
       d="m 117.63048,187.0687 -8.66026,-5 0,-10 8.66026,-5 8.66025,4.99999 0,10 z"
       transform="matrix(3.2127054,1.9029241,-1.9029241,3.2127054,443.00013,-805.93167)" />
    <g
       style="font-style:normal;font-variant:normal;font-weight:normal;font-stretch:normal;font-size:30px;line-height:125%;font-family:'Arial Black';-inkscape-font-specification:'Arial Black, ';letter-spacing:0px;word-spacing:0px;fill:url(#linearGradient4550);fill-opacity:1;stroke:#383838;stroke-width:1;stroke-linecap:butt;stroke-linejoin:miter;stroke-miterlimit:4;stroke-dasharray:none;stroke-opacity:1"
       id="text4356"
       transform="matrix(3.7339786,0,0,3.7339786,49.638261,-651.06797)">
      <path
         d="m 148.80957,160.52965 8.73047,0 3.36914,13.0664 3.35449,-13.0664 8.70117,0 0,21.47461 -5.41992,0 0,-16.37696 -4.2041,16.37696 -4.90723,0 -4.18945,-16.37696 0,16.37696 -5.43457,0 0,-21.47461 z"
         id="path4379"
         style="color:#000000;clip-rule:nonzero;display:inline;overflow:visible;visibility:visible;opacity:1;isolation:auto;mix-blend-mode:normal;color-interpolation:sRGB;color-interpolation-filters:linearRGB;solid-color:#000000;solid-opacity:1;fill:url(#linearGradient4781);fill-opacity:1;fill-rule:nonzero;stroke:#383838;stroke-width:0.69999999;stroke-linecap:butt;stroke-linejoin:miter;stroke-miterlimit:4;stroke-dasharray:none;stroke-dashoffset:0;stroke-opacity:1;marker:none;color-rendering:auto;image-rendering:auto;shape-rendering:auto;text-rendering:auto;enable-background:accumulate"
         inkscape:connector-curvature="0" />
      <path
         d="m 187.97949,174.22594 0,-4.46778 10.25391,0 0,9.15528 q -2.94434,2.00683 -5.21485,2.73925 -2.25585,0.71778 -5.36132,0.71778 -3.82325,0 -6.24024,-1.30371 -2.40234,-1.30371 -3.73535,-3.88184 -1.31836,-2.57812 -1.31836,-5.91797 0,-3.51562 1.4502,-6.1084 1.45019,-2.60742 4.24804,-3.95507 2.18262,-1.04004 5.87403,-1.04004 3.55957,0 5.31738,0.64453 1.77246,0.64453 2.92969,2.00683 1.17187,1.34766 1.75781,3.42774 l -6.40137,1.14258 q -0.39551,-1.21582 -1.34765,-1.86035 -0.9375,-0.64454 -2.40235,-0.64454 -2.18261,0 -3.48633,1.52344 -1.28906,1.50879 -1.28906,4.79004 0,3.48633 1.30371,4.98047 1.31836,1.49414 3.66211,1.49414 1.11328,0 2.12403,-0.32227 1.01074,-0.32226 2.31445,-1.09863 l 0,-2.02148 -4.43848,0 z"
         style="color:#000000;clip-rule:nonzero;display:inline;overflow:visible;visibility:visible;opacity:1;isolation:auto;mix-blend-mode:normal;color-interpolation:sRGB;color-interpolation-filters:linearRGB;solid-color:#000000;solid-opacity:1;fill:url(#linearGradient4783);fill-opacity:1;fill-rule:nonzero;stroke:#383838;stroke-width:0.69999999;stroke-linecap:butt;stroke-linejoin:miter;stroke-miterlimit:4;stroke-dasharray:none;stroke-dashoffset:0;stroke-opacity:1;marker:none;color-rendering:auto;image-rendering:auto;shape-rendering:auto;text-rendering:auto;enable-background:accumulate"
         id="path4381"
         inkscape:connector-curvature="0" />
      <path
         d="m 201.0459,174.89977 6.31347,-0.39551 q 0.20508,1.53808 0.83497,2.34375 1.02539,1.30371 2.92968,1.30371 1.4209,0 2.18262,-0.65918 0.77637,-0.67383 0.77637,-1.55274 0,-0.83496 -0.73242,-1.49414 -0.73243,-0.65918 -3.39844,-1.24511 -4.36524,-0.98145 -6.22559,-2.60743 -1.875,-1.62597 -1.875,-4.1455 0,-1.65528 0.95215,-3.12012 0.9668,-1.47949 2.88574,-2.31445 1.9336,-0.84961 5.28809,-0.84961 4.11621,0 6.26953,1.53808 2.16797,1.52344 2.57813,4.86328 l -6.25489,0.36622 q -0.24902,-1.4502 -1.05469,-2.10938 -0.79101,-0.65918 -2.19726,-0.65918 -1.15723,0 -1.74316,0.49805 -0.58594,0.4834 -0.58594,1.18652 0,0.5127 0.4834,0.92285 0.46875,0.42481 2.22656,0.79102 4.35058,0.9375 6.22558,1.90429 1.88965,0.95215 2.73926,2.37305 0.86426,1.4209 0.86426,3.17871 0,2.06543 -1.14258,3.8086 -1.14258,1.74316 -3.19336,2.65136 -2.05078,0.89356 -5.1709,0.89356 -5.47851,0 -7.58789,-2.10938 -2.10937,-2.10937 -2.38769,-5.36132 z"
         style="color:#000000;clip-rule:nonzero;display:inline;overflow:visible;visibility:visible;opacity:1;isolation:auto;mix-blend-mode:normal;color-interpolation:sRGB;color-interpolation-filters:linearRGB;solid-color:#000000;solid-opacity:1;fill:url(#linearGradient4785);fill-opacity:1;fill-rule:nonzero;stroke:#383838;stroke-width:0.69999999;stroke-linecap:butt;stroke-linejoin:miter;stroke-miterlimit:4;stroke-dasharray:none;stroke-dashoffset:0;stroke-opacity:1;marker:none;color-rendering:auto;image-rendering:auto;shape-rendering:auto;text-rendering:auto;enable-background:accumulate"
         id="path4383"
         inkscape:connector-curvature="0" />
      <path
         d="m 222.40332,160.52965 7.30957,0 3.80859,6.60644 9.00637,-11.69994 8.34361,0 -13.10193,15.49389 7.30957,11.07422 -7.45605,0 -4.2334,-6.89942 -11.1132,12.43583 -7.41211,0 14.27726,-16.72782 z"
         id="path4385"
         inkscape:connector-curvature="0"
         sodipodi:nodetypes="ccccccccccccc"
         style="color:#000000;clip-rule:nonzero;display:inline;overflow:visible;visibility:visible;opacity:1;isolation:auto;mix-blend-mode:normal;color-interpolation:sRGB;color-interpolation-filters:linearRGB;solid-color:#000000;solid-opacity:1;fill:url(#linearGradient4787);fill-opacity:1;fill-rule:nonzero;stroke:#383838;stroke-width:0.69999999;stroke-linecap:butt;stroke-linejoin:miter;stroke-miterlimit:4;stroke-dasharray:none;stroke-dashoffset:0;stroke-opacity:1;marker:none;color-rendering:auto;image-rendering:auto;shape-rendering:auto;text-rendering:auto;enable-background:accumulate" />
    </g>
  </g>
</svg>
